<svg width="20" height="13" viewBox="0 0 20 13" xmlns="http://www.w3.org/2000/svg"><title>31D49D74-0230-4DF0-88E1-C654A78A4BB1</title><path d="M15.61 4.1c-.024-.379-.009-.716-.073-1.037-.294-1.468-1.415-2.367-2.941-2.369C9.398.69 6.199.691 3 .697c-.27 0-.546.02-.806.084C.865 1.108.005 2.246.002 3.673-.002 5.77 0 7.867.004 9.965c0 .22.016.445.062.66.312 1.438 1.394 2.324 2.924 2.332 3.215.017 6.43.017 9.646 0 1.585-.008 2.693-.951 2.955-2.476.05-.293.008-.603.008-.95.134.072.208.108.28.15.982.571 1.962 1.146 2.945 1.714.452.261.964.107 1.137-.361.06-.164.032-.365.032-.548.002-2.49.002-4.98.001-7.47 0-.731-.622-1.095-1.259-.732-.464.264-.923.537-1.385.805-.57.332-1.14.663-1.74 1.01" fill="#FFF" fill-rule="evenodd"/></svg>