<svg width="14" height="14" viewBox="0 0 14 14" xmlns="http://www.w3.org/2000/svg"><title>DCEE5785-6C21-40FD-8543-F874AB544AB5</title><path d="M4.13 5.005v-.02c-.015-.291.063-.527.299-.733.286-.25.537-.543.793-.827a1.25 1.25 0 0 0 .197-.328.57.57 0 0 0-.096-.632 1.874 1.874 0 0 0-.121-.13L3.119.26C2.886.027 2.613-.028 2.33.135a2.732 2.732 0 0 0-.524.392c-.468.45-.93.908-1.383 1.375-.37.381-.457.86-.414 1.37.06.712.341 1.352.669 1.973.51.969 1.153 1.848 1.843 2.695.634.78 1.297 1.535 2.035 2.22 1.153 1.07 2.366 2.066 3.722 2.876.583.349 1.19.647 1.848.827.441.12.887.17 1.34.057a1.43 1.43 0 0 0 .666-.369 79.48 79.48 0 0 0 1.446-1.46c.137-.143.25-.317.34-.494.118-.23.076-.459-.095-.657a2.317 2.317 0 0 0-.122-.13l-2.068-2.062c-.238-.238-.517-.297-.803-.12-.234.146-.447.33-.653.514-.212.19-.403.403-.609.6a.358.358 0 0 1-.178.09c-.578.094-1.128-.02-1.658-.244-.867-.364-1.571-.95-2.202-1.633-.467-.506-.867-1.057-1.13-1.698-.165-.401-.274-.814-.27-1.252" fill="#FFF" fill-rule="evenodd"/></svg>