<svg width="18" height="15" viewBox="0 0 18 15" xmlns="http://www.w3.org/2000/svg" xmlns:xlink="http://www.w3.org/1999/xlink"><title>1655408E-AB84-4750-9B77-E452350BBB9E</title><defs><path id="a" d="M15.515.004H0V14.95h15.515z"/><path id="c" d="M2.546 2.51V.02H.008v2.49h2.538z"/></defs><g fill="none" fill-rule="evenodd"><g transform="translate(0 .045)"><mask id="b" fill="#fff"><use xlink:href="#a"/></mask><path d="M14.562.019l-.733.565c-.435.335-.872.667-1.305 1.004a.358.358 0 0 1-.237.08c-3.229-.001-6.457 0-9.686-.003-.312 0-.57.088-.749.352a.716.716 0 0 0-.128.414c.002 3.357.001 6.715.001 10.073 0 .42.323.756.75.782.029.002.058.002.087.002h10.396c.407 0 .71-.214.813-.575a.713.713 0 0 0 .022-.193c0-1.45.002-2.9-.002-4.35 0-.122.031-.2.132-.276.505-.379 1.003-.766 1.504-1.15.022-.017.045-.031.082-.056.003.056.006.095.006.134v7.107c0 .49-.295.87-.768.985a1.375 1.375 0 0 1-.32.035c-4.442.002-8.884.002-13.326.002-.579 0-.988-.32-1.085-.846-.012-.064-.01-.13-.01-.195C.004 9.624.008 5.34 0 1.054-.001.511.38.014 1.05.004h13.324c.051 0 .101.008.188.015" fill="#FFF" mask="url(#b)"/></g><path d="M9.128 10.074L7.37 8.303l7.326-6.743 1.758 1.771c-2.443 2.25-4.881 4.493-7.326 6.743M6.466 9.096l1.761 1.774c-.205.188-.404.372-.606.553a.143.143 0 0 1-.09.029 456.52 456.52 0 0 1-1.719-.034c-.011 0-.023-.006-.043-.012v-.156l.046-1.469c.001-.038.006-.088.03-.112.202-.192.41-.38.621-.573" fill="#FFF"/><g transform="translate(15.407 .241)"><mask id="d" fill="#fff"><use xlink:href="#c"/></mask><path d="M2.546 1.801l-.77.71L.007.728.78.019l1.767 1.782" fill="#FFF" mask="url(#d)"/></g></g></svg>